<mxfile host="app.diagrams.net" agent="Mozilla/5.0 (X11; Ubuntu; Linux x86_64; rv:109.0) Gecko/20100101 Firefox/110.0" version="24.7.7">
  <diagram name="Page-1" id="IoNV0txt_ILuziSCk4Js">
    <mxGraphModel dx="1360" dy="795" grid="1" gridSize="10" guides="1" tooltips="1" connect="1" arrows="1" fold="1" page="1" pageScale="1" pageWidth="850" pageHeight="1100" math="0" shadow="0">
      <root>
        <mxCell id="0" />
        <mxCell id="1" parent="0" />
        <mxCell id="fcqO3s_JAQGIZoh2bYVj-2" style="edgeStyle=orthogonalEdgeStyle;rounded=0;orthogonalLoop=1;jettySize=auto;html=1;entryX=0.5;entryY=0;entryDx=0;entryDy=0;" edge="1" parent="1" source="fcqO3s_JAQGIZoh2bYVj-1" target="fcqO3s_JAQGIZoh2bYVj-3">
          <mxGeometry relative="1" as="geometry">
            <mxPoint x="290" y="260" as="targetPoint" />
            <Array as="points">
              <mxPoint x="425" y="220" />
              <mxPoint x="170" y="220" />
            </Array>
          </mxGeometry>
        </mxCell>
        <mxCell id="fcqO3s_JAQGIZoh2bYVj-17" style="edgeStyle=orthogonalEdgeStyle;rounded=0;orthogonalLoop=1;jettySize=auto;html=1;entryX=0.5;entryY=0;entryDx=0;entryDy=0;" edge="1" parent="1" source="fcqO3s_JAQGIZoh2bYVj-1" target="fcqO3s_JAQGIZoh2bYVj-18">
          <mxGeometry relative="1" as="geometry">
            <mxPoint x="680" y="30" as="targetPoint" />
          </mxGeometry>
        </mxCell>
        <mxCell id="fcqO3s_JAQGIZoh2bYVj-1" value="Home Page" style="rounded=0;whiteSpace=wrap;html=1;" vertex="1" parent="1">
          <mxGeometry x="365" y="10" width="120" height="40" as="geometry" />
        </mxCell>
        <mxCell id="fcqO3s_JAQGIZoh2bYVj-23" value="" style="edgeStyle=orthogonalEdgeStyle;rounded=0;orthogonalLoop=1;jettySize=auto;html=1;" edge="1" parent="1" source="fcqO3s_JAQGIZoh2bYVj-3" target="fcqO3s_JAQGIZoh2bYVj-22">
          <mxGeometry relative="1" as="geometry" />
        </mxCell>
        <mxCell id="fcqO3s_JAQGIZoh2bYVj-3" value="About us" style="rounded=0;whiteSpace=wrap;html=1;fillColor=#d5e8d4;strokeColor=#82b366;" vertex="1" parent="1">
          <mxGeometry x="140" y="270" width="60" height="30" as="geometry" />
        </mxCell>
        <mxCell id="fcqO3s_JAQGIZoh2bYVj-4" value="" style="endArrow=classic;html=1;rounded=0;exitX=0.5;exitY=1;exitDx=0;exitDy=0;" edge="1" parent="1" source="fcqO3s_JAQGIZoh2bYVj-1" target="fcqO3s_JAQGIZoh2bYVj-5">
          <mxGeometry width="50" height="50" relative="1" as="geometry">
            <mxPoint x="400" y="440" as="sourcePoint" />
            <mxPoint x="425" y="260" as="targetPoint" />
            <Array as="points">
              <mxPoint x="425" y="220" />
              <mxPoint x="270" y="220" />
            </Array>
          </mxGeometry>
        </mxCell>
        <mxCell id="fcqO3s_JAQGIZoh2bYVj-25" value="" style="edgeStyle=orthogonalEdgeStyle;rounded=0;orthogonalLoop=1;jettySize=auto;html=1;" edge="1" parent="1" source="fcqO3s_JAQGIZoh2bYVj-5" target="fcqO3s_JAQGIZoh2bYVj-24">
          <mxGeometry relative="1" as="geometry">
            <Array as="points">
              <mxPoint x="270" y="500" />
              <mxPoint x="210" y="500" />
            </Array>
          </mxGeometry>
        </mxCell>
        <mxCell id="fcqO3s_JAQGIZoh2bYVj-5" value="Products" style="rounded=0;whiteSpace=wrap;html=1;fillColor=#d5e8d4;strokeColor=#82b366;" vertex="1" parent="1">
          <mxGeometry x="240" y="270" width="60" height="30" as="geometry" />
        </mxCell>
        <mxCell id="fcqO3s_JAQGIZoh2bYVj-6" value="" style="endArrow=classic;html=1;rounded=0;exitX=0.5;exitY=1;exitDx=0;exitDy=0;" edge="1" parent="1" source="fcqO3s_JAQGIZoh2bYVj-1" target="fcqO3s_JAQGIZoh2bYVj-7">
          <mxGeometry width="50" height="50" relative="1" as="geometry">
            <mxPoint x="400" y="440" as="sourcePoint" />
            <mxPoint x="450" y="390" as="targetPoint" />
            <Array as="points">
              <mxPoint x="425" y="220" />
              <mxPoint x="380" y="220" />
            </Array>
          </mxGeometry>
        </mxCell>
        <mxCell id="fcqO3s_JAQGIZoh2bYVj-29" value="" style="edgeStyle=orthogonalEdgeStyle;rounded=0;orthogonalLoop=1;jettySize=auto;html=1;" edge="1" parent="1" source="fcqO3s_JAQGIZoh2bYVj-7" target="fcqO3s_JAQGIZoh2bYVj-28">
          <mxGeometry relative="1" as="geometry" />
        </mxCell>
        <mxCell id="fcqO3s_JAQGIZoh2bYVj-7" value="Contact us" style="rounded=0;whiteSpace=wrap;html=1;fillColor=#d5e8d4;strokeColor=#82b366;" vertex="1" parent="1">
          <mxGeometry x="340" y="270" width="80" height="30" as="geometry" />
        </mxCell>
        <mxCell id="fcqO3s_JAQGIZoh2bYVj-8" value="" style="endArrow=classic;html=1;rounded=0;exitX=0.5;exitY=1;exitDx=0;exitDy=0;" edge="1" parent="1" source="fcqO3s_JAQGIZoh2bYVj-1" target="fcqO3s_JAQGIZoh2bYVj-9">
          <mxGeometry width="50" height="50" relative="1" as="geometry">
            <mxPoint x="400" y="440" as="sourcePoint" />
            <mxPoint x="450" y="390" as="targetPoint" />
            <Array as="points">
              <mxPoint x="425" y="220" />
              <mxPoint x="495" y="220" />
            </Array>
          </mxGeometry>
        </mxCell>
        <mxCell id="fcqO3s_JAQGIZoh2bYVj-33" value="" style="edgeStyle=orthogonalEdgeStyle;rounded=0;orthogonalLoop=1;jettySize=auto;html=1;" edge="1" parent="1" source="fcqO3s_JAQGIZoh2bYVj-9" target="fcqO3s_JAQGIZoh2bYVj-34">
          <mxGeometry relative="1" as="geometry">
            <mxPoint x="495" y="600" as="targetPoint" />
          </mxGeometry>
        </mxCell>
        <mxCell id="fcqO3s_JAQGIZoh2bYVj-9" value="Account" style="rounded=0;whiteSpace=wrap;html=1;fillColor=#dae8fc;strokeColor=#6c8ebf;" vertex="1" parent="1">
          <mxGeometry x="460" y="270" width="70" height="30" as="geometry" />
        </mxCell>
        <mxCell id="fcqO3s_JAQGIZoh2bYVj-10" value="" style="endArrow=classic;html=1;rounded=0;exitX=0.5;exitY=1;exitDx=0;exitDy=0;" edge="1" parent="1" source="fcqO3s_JAQGIZoh2bYVj-1" target="fcqO3s_JAQGIZoh2bYVj-11">
          <mxGeometry width="50" height="50" relative="1" as="geometry">
            <mxPoint x="400" y="440" as="sourcePoint" />
            <mxPoint x="450" y="390" as="targetPoint" />
            <Array as="points">
              <mxPoint x="425" y="220" />
              <mxPoint x="620" y="220" />
            </Array>
          </mxGeometry>
        </mxCell>
        <mxCell id="fcqO3s_JAQGIZoh2bYVj-50" value="" style="edgeStyle=orthogonalEdgeStyle;rounded=0;orthogonalLoop=1;jettySize=auto;html=1;" edge="1" parent="1" source="fcqO3s_JAQGIZoh2bYVj-11" target="fcqO3s_JAQGIZoh2bYVj-49">
          <mxGeometry relative="1" as="geometry" />
        </mxCell>
        <mxCell id="fcqO3s_JAQGIZoh2bYVj-11" value="Shopping Cart" style="rounded=0;whiteSpace=wrap;html=1;fillColor=#dae8fc;strokeColor=#6c8ebf;" vertex="1" parent="1">
          <mxGeometry x="570" y="270" width="100" height="30" as="geometry" />
        </mxCell>
        <mxCell id="fcqO3s_JAQGIZoh2bYVj-12" value="" style="endArrow=classic;html=1;rounded=0;exitX=0.5;exitY=1;exitDx=0;exitDy=0;" edge="1" parent="1" source="fcqO3s_JAQGIZoh2bYVj-1" target="fcqO3s_JAQGIZoh2bYVj-13">
          <mxGeometry width="50" height="50" relative="1" as="geometry">
            <mxPoint x="400" y="380" as="sourcePoint" />
            <mxPoint x="450" y="330" as="targetPoint" />
            <Array as="points">
              <mxPoint x="425" y="220" />
              <mxPoint x="735" y="220" />
            </Array>
          </mxGeometry>
        </mxCell>
        <mxCell id="fcqO3s_JAQGIZoh2bYVj-52" value="" style="edgeStyle=orthogonalEdgeStyle;rounded=0;orthogonalLoop=1;jettySize=auto;html=1;" edge="1" parent="1" source="fcqO3s_JAQGIZoh2bYVj-13" target="fcqO3s_JAQGIZoh2bYVj-51">
          <mxGeometry relative="1" as="geometry" />
        </mxCell>
        <mxCell id="fcqO3s_JAQGIZoh2bYVj-13" value="Help" style="rounded=0;whiteSpace=wrap;html=1;fillColor=#d5e8d4;strokeColor=#82b366;" vertex="1" parent="1">
          <mxGeometry x="710" y="270" width="50" height="30" as="geometry" />
        </mxCell>
        <mxCell id="fcqO3s_JAQGIZoh2bYVj-14" value="" style="endArrow=classic;html=1;rounded=0;exitX=0.5;exitY=1;exitDx=0;exitDy=0;" edge="1" parent="1" source="fcqO3s_JAQGIZoh2bYVj-1" target="fcqO3s_JAQGIZoh2bYVj-15">
          <mxGeometry width="50" height="50" relative="1" as="geometry">
            <mxPoint x="400" y="380" as="sourcePoint" />
            <mxPoint x="560" y="460" as="targetPoint" />
            <Array as="points">
              <mxPoint x="425" y="220" />
              <mxPoint x="830" y="220" />
              <mxPoint x="890" y="220" />
            </Array>
          </mxGeometry>
        </mxCell>
        <mxCell id="fcqO3s_JAQGIZoh2bYVj-54" value="" style="edgeStyle=orthogonalEdgeStyle;rounded=0;orthogonalLoop=1;jettySize=auto;html=1;" edge="1" parent="1" source="fcqO3s_JAQGIZoh2bYVj-15" target="fcqO3s_JAQGIZoh2bYVj-53">
          <mxGeometry relative="1" as="geometry" />
        </mxCell>
        <mxCell id="fcqO3s_JAQGIZoh2bYVj-15" value="Policies" style="rounded=0;whiteSpace=wrap;html=1;fillColor=#d5e8d4;strokeColor=#82b366;" vertex="1" parent="1">
          <mxGeometry x="860" y="270" width="60" height="30" as="geometry" />
        </mxCell>
        <mxCell id="fcqO3s_JAQGIZoh2bYVj-18" value="&lt;div&gt;Header:&lt;/div&gt;&lt;div&gt;logo, pages toolbar, searchbar, account, shopping cart&lt;br&gt;&lt;/div&gt;" style="rounded=0;whiteSpace=wrap;html=1;fillColor=#dae8fc;strokeColor=#6c8ebf;" vertex="1" parent="1">
          <mxGeometry x="510" y="70" width="165" height="50" as="geometry" />
        </mxCell>
        <mxCell id="fcqO3s_JAQGIZoh2bYVj-19" value="&lt;div&gt;Footer:&lt;/div&gt;&lt;div&gt;socials link, email&lt;br&gt;&lt;/div&gt;" style="rounded=0;whiteSpace=wrap;html=1;fillColor=#dae8fc;strokeColor=#6c8ebf;" vertex="1" parent="1">
          <mxGeometry x="720" y="70" width="120" height="50" as="geometry" />
        </mxCell>
        <mxCell id="fcqO3s_JAQGIZoh2bYVj-21" value="" style="endArrow=classic;html=1;rounded=0;exitX=1;exitY=0.5;exitDx=0;exitDy=0;entryX=0.5;entryY=0;entryDx=0;entryDy=0;" edge="1" parent="1" source="fcqO3s_JAQGIZoh2bYVj-1" target="fcqO3s_JAQGIZoh2bYVj-19">
          <mxGeometry width="50" height="50" relative="1" as="geometry">
            <mxPoint x="660" y="40" as="sourcePoint" />
            <mxPoint x="710" y="-10" as="targetPoint" />
            <Array as="points">
              <mxPoint x="780" y="30" />
            </Array>
          </mxGeometry>
        </mxCell>
        <mxCell id="fcqO3s_JAQGIZoh2bYVj-22" value="what, why, when" style="whiteSpace=wrap;html=1;rounded=0;" vertex="1" parent="1">
          <mxGeometry x="60" y="360" width="100" height="25" as="geometry" />
        </mxCell>
        <mxCell id="fcqO3s_JAQGIZoh2bYVj-24" value="Products list" style="whiteSpace=wrap;html=1;rounded=0;" vertex="1" parent="1">
          <mxGeometry x="170" y="520" width="80" height="35" as="geometry" />
        </mxCell>
        <mxCell id="fcqO3s_JAQGIZoh2bYVj-26" value="" style="endArrow=classic;html=1;rounded=0;exitX=0.5;exitY=1;exitDx=0;exitDy=0;" edge="1" parent="1" source="fcqO3s_JAQGIZoh2bYVj-5" target="fcqO3s_JAQGIZoh2bYVj-27">
          <mxGeometry width="50" height="50" relative="1" as="geometry">
            <mxPoint x="400" y="380" as="sourcePoint" />
            <mxPoint x="330" y="420" as="targetPoint" />
            <Array as="points">
              <mxPoint x="270" y="500" />
              <mxPoint x="330" y="500" />
            </Array>
          </mxGeometry>
        </mxCell>
        <mxCell id="fcqO3s_JAQGIZoh2bYVj-27" value="Products search" style="rounded=0;whiteSpace=wrap;html=1;" vertex="1" parent="1">
          <mxGeometry x="280" y="520" width="100" height="40" as="geometry" />
        </mxCell>
        <mxCell id="fcqO3s_JAQGIZoh2bYVj-28" value="email form fill" style="whiteSpace=wrap;html=1;rounded=0;" vertex="1" parent="1">
          <mxGeometry x="285" y="380" width="80" height="25" as="geometry" />
        </mxCell>
        <mxCell id="fcqO3s_JAQGIZoh2bYVj-30" value="" style="endArrow=classic;html=1;rounded=0;" edge="1" parent="1" target="fcqO3s_JAQGIZoh2bYVj-31">
          <mxGeometry width="50" height="50" relative="1" as="geometry">
            <mxPoint x="380" y="300" as="sourcePoint" />
            <mxPoint x="450" y="330" as="targetPoint" />
            <Array as="points">
              <mxPoint x="380" y="340" />
              <mxPoint x="420" y="340" />
            </Array>
          </mxGeometry>
        </mxCell>
        <mxCell id="fcqO3s_JAQGIZoh2bYVj-31" value="socials link" style="rounded=0;whiteSpace=wrap;html=1;" vertex="1" parent="1">
          <mxGeometry x="380" y="380" width="80" height="30" as="geometry" />
        </mxCell>
        <mxCell id="fcqO3s_JAQGIZoh2bYVj-36" value="" style="edgeStyle=orthogonalEdgeStyle;rounded=0;orthogonalLoop=1;jettySize=auto;html=1;" edge="1" parent="1" source="fcqO3s_JAQGIZoh2bYVj-34" target="fcqO3s_JAQGIZoh2bYVj-35">
          <mxGeometry relative="1" as="geometry" />
        </mxCell>
        <mxCell id="fcqO3s_JAQGIZoh2bYVj-48" value="" style="edgeStyle=orthogonalEdgeStyle;rounded=0;orthogonalLoop=1;jettySize=auto;html=1;" edge="1" parent="1" source="fcqO3s_JAQGIZoh2bYVj-34" target="fcqO3s_JAQGIZoh2bYVj-47">
          <mxGeometry relative="1" as="geometry" />
        </mxCell>
        <mxCell id="fcqO3s_JAQGIZoh2bYVj-34" value="Login Page" style="rounded=0;whiteSpace=wrap;html=1;" vertex="1" parent="1">
          <mxGeometry x="452.5" y="510" width="85" height="30" as="geometry" />
        </mxCell>
        <mxCell id="fcqO3s_JAQGIZoh2bYVj-38" value="" style="edgeStyle=orthogonalEdgeStyle;rounded=0;orthogonalLoop=1;jettySize=auto;html=1;" edge="1" parent="1" source="fcqO3s_JAQGIZoh2bYVj-35" target="fcqO3s_JAQGIZoh2bYVj-37">
          <mxGeometry relative="1" as="geometry">
            <Array as="points">
              <mxPoint x="495" y="680" />
              <mxPoint x="353" y="680" />
            </Array>
          </mxGeometry>
        </mxCell>
        <mxCell id="fcqO3s_JAQGIZoh2bYVj-40" value="" style="edgeStyle=orthogonalEdgeStyle;rounded=0;orthogonalLoop=1;jettySize=auto;html=1;" edge="1" parent="1" source="fcqO3s_JAQGIZoh2bYVj-35" target="fcqO3s_JAQGIZoh2bYVj-39">
          <mxGeometry relative="1" as="geometry">
            <Array as="points">
              <mxPoint x="495" y="680" />
              <mxPoint x="451" y="680" />
            </Array>
          </mxGeometry>
        </mxCell>
        <mxCell id="fcqO3s_JAQGIZoh2bYVj-41" style="edgeStyle=orthogonalEdgeStyle;rounded=0;orthogonalLoop=1;jettySize=auto;html=1;" edge="1" parent="1" source="fcqO3s_JAQGIZoh2bYVj-35" target="fcqO3s_JAQGIZoh2bYVj-42">
          <mxGeometry relative="1" as="geometry">
            <mxPoint x="610" y="780" as="targetPoint" />
            <Array as="points">
              <mxPoint x="495" y="680" />
              <mxPoint x="560" y="680" />
            </Array>
          </mxGeometry>
        </mxCell>
        <mxCell id="fcqO3s_JAQGIZoh2bYVj-43" style="edgeStyle=orthogonalEdgeStyle;rounded=0;orthogonalLoop=1;jettySize=auto;html=1;" edge="1" parent="1" source="fcqO3s_JAQGIZoh2bYVj-35" target="fcqO3s_JAQGIZoh2bYVj-44">
          <mxGeometry relative="1" as="geometry">
            <mxPoint x="740" y="860" as="targetPoint" />
            <Array as="points">
              <mxPoint x="495" y="680" />
              <mxPoint x="685" y="680" />
            </Array>
          </mxGeometry>
        </mxCell>
        <mxCell id="fcqO3s_JAQGIZoh2bYVj-55" style="edgeStyle=orthogonalEdgeStyle;rounded=0;orthogonalLoop=1;jettySize=auto;html=1;" edge="1" parent="1" source="fcqO3s_JAQGIZoh2bYVj-35" target="fcqO3s_JAQGIZoh2bYVj-58">
          <mxGeometry relative="1" as="geometry">
            <mxPoint x="1030" y="700" as="targetPoint" />
            <Array as="points">
              <mxPoint x="495" y="680" />
              <mxPoint x="795" y="680" />
            </Array>
          </mxGeometry>
        </mxCell>
        <mxCell id="fcqO3s_JAQGIZoh2bYVj-35" value="Account overview" style="whiteSpace=wrap;html=1;rounded=0;" vertex="1" parent="1">
          <mxGeometry x="435" y="605" width="120" height="35" as="geometry" />
        </mxCell>
        <mxCell id="fcqO3s_JAQGIZoh2bYVj-37" value="Past orders" style="whiteSpace=wrap;html=1;rounded=0;" vertex="1" parent="1">
          <mxGeometry x="310" y="731.25" width="85" height="32.5" as="geometry" />
        </mxCell>
        <mxCell id="fcqO3s_JAQGIZoh2bYVj-39" value="Address" style="whiteSpace=wrap;html=1;rounded=0;" vertex="1" parent="1">
          <mxGeometry x="417.5" y="731.25" width="67.5" height="32.5" as="geometry" />
        </mxCell>
        <mxCell id="fcqO3s_JAQGIZoh2bYVj-42" value="&lt;div&gt;Account Details&lt;/div&gt;" style="rounded=0;whiteSpace=wrap;html=1;" vertex="1" parent="1">
          <mxGeometry x="510" y="731.25" width="100" height="30" as="geometry" />
        </mxCell>
        <mxCell id="fcqO3s_JAQGIZoh2bYVj-44" value="Payment Method" style="rounded=0;whiteSpace=wrap;html=1;" vertex="1" parent="1">
          <mxGeometry x="630" y="731.25" width="110" height="30" as="geometry" />
        </mxCell>
        <mxCell id="fcqO3s_JAQGIZoh2bYVj-47" value="Create account" style="rounded=0;whiteSpace=wrap;html=1;" vertex="1" parent="1">
          <mxGeometry x="570" y="510" width="120" height="30" as="geometry" />
        </mxCell>
        <mxCell id="fcqO3s_JAQGIZoh2bYVj-49" value="View cart" style="whiteSpace=wrap;html=1;rounded=0;" vertex="1" parent="1">
          <mxGeometry x="585" y="360" width="70" height="35" as="geometry" />
        </mxCell>
        <mxCell id="fcqO3s_JAQGIZoh2bYVj-51" value="FAQ, link to contact and policies pages" style="whiteSpace=wrap;html=1;rounded=0;" vertex="1" parent="1">
          <mxGeometry x="675" y="360" width="120" height="45" as="geometry" />
        </mxCell>
        <mxCell id="fcqO3s_JAQGIZoh2bYVj-53" value="shipping, returns, FFL, etc policies" style="whiteSpace=wrap;html=1;rounded=0;" vertex="1" parent="1">
          <mxGeometry x="830" y="360" width="120" height="45" as="geometry" />
        </mxCell>
        <mxCell id="fcqO3s_JAQGIZoh2bYVj-58" value="FFL" style="rounded=0;whiteSpace=wrap;html=1;" vertex="1" parent="1">
          <mxGeometry x="770" y="731.25" width="50" height="30" as="geometry" />
        </mxCell>
        <mxCell id="fcqO3s_JAQGIZoh2bYVj-59" value="Wrapper on every page" style="rounded=0;whiteSpace=wrap;html=1;fillColor=#dae8fc;strokeColor=#6c8ebf;" vertex="1" parent="1">
          <mxGeometry x="1020" y="30" width="120" height="60" as="geometry" />
        </mxCell>
        <mxCell id="fcqO3s_JAQGIZoh2bYVj-60" value="links to pages in toolbar" style="rounded=0;whiteSpace=wrap;html=1;fillColor=#d5e8d4;strokeColor=#82b366;" vertex="1" parent="1">
          <mxGeometry x="1215" y="30" width="120" height="60" as="geometry" />
        </mxCell>
      </root>
    </mxGraphModel>
  </diagram>
</mxfile>
